<mxfile modified="2020-11-16T00:24:11.751Z" host="app.diagrams.net" agent="5.0 (Macintosh; Intel Mac OS X 10_15_7) AppleWebKit/537.36 (KHTML, like Gecko) Chrome/86.0.4240.183 Safari/537.36" etag="iZxBP-tk-F2fiuo4eoBk" version="13.9.9" type="github">
  <diagram id="Ht1M8jgEwFfnCIfOTk4-" name="Page-1">
    <mxGraphModel dx="1426" dy="1874" grid="0" gridSize="10" guides="1" tooltips="1" connect="1" arrows="1" fold="1" page="1" pageScale="1" pageWidth="1169" pageHeight="827" math="0" shadow="0">
      <root>
        <mxCell id="0" />
        <mxCell id="1" parent="0" />
        <mxCell id="qKtiOTFCfpdLwfOGQDM3-26" value="VPC" style="points=[[0,0],[0.25,0],[0.5,0],[0.75,0],[1,0],[1,0.25],[1,0.5],[1,0.75],[1,1],[0.75,1],[0.5,1],[0.25,1],[0,1],[0,0.75],[0,0.5],[0,0.25]];outlineConnect=0;gradientColor=none;html=1;whiteSpace=wrap;fontSize=12;fontStyle=0;shape=mxgraph.aws4.group;grIcon=mxgraph.aws4.group_vpc;strokeColor=#248814;fillColor=none;verticalAlign=top;align=left;spacingLeft=30;fontColor=#AAB7B8;dashed=0;" vertex="1" parent="1">
          <mxGeometry x="91" y="218" width="979" height="527" as="geometry" />
        </mxCell>
        <mxCell id="qKtiOTFCfpdLwfOGQDM3-9" value="" style="rounded=1;arcSize=10;dashed=0;fillColor=none;gradientColor=none;strokeWidth=2;" vertex="1" parent="1">
          <mxGeometry x="138" y="277" width="884" height="433" as="geometry" />
        </mxCell>
        <mxCell id="-QjtrjUzRDEMRZ5MF8oH-47" value="Over-architected Foundry VTT Hosting" style="text;html=1;resizable=0;points=[];autosize=1;align=left;verticalAlign=top;spacingTop=-4;fontSize=30;fontStyle=1" parent="1" vertex="1">
          <mxGeometry x="56.5" y="64.5" width="562" height="36" as="geometry" />
        </mxCell>
        <mxCell id="-QjtrjUzRDEMRZ5MF8oH-48" value="Learning AWS" style="text;html=1;resizable=0;points=[];autosize=1;align=left;verticalAlign=top;spacingTop=-4;fontSize=16;" parent="1" vertex="1">
          <mxGeometry x="56.5" y="114.5" width="112" height="19" as="geometry" />
        </mxCell>
        <mxCell id="SCVMTBWpLvtzJIhz15lM-1" value="" style="line;strokeWidth=2;html=1;fontSize=14;" parent="1" vertex="1">
          <mxGeometry x="52.5" y="139.5" width="1060" height="10" as="geometry" />
        </mxCell>
        <mxCell id="qKtiOTFCfpdLwfOGQDM3-4" value="Hosted Zone" style="outlineConnect=0;fontColor=#232F3E;gradientColor=none;fillColor=#5A30B5;strokeColor=none;dashed=0;verticalLabelPosition=bottom;verticalAlign=top;align=center;html=1;fontSize=12;fontStyle=0;aspect=fixed;pointerEvents=1;shape=mxgraph.aws4.hosted_zone;" vertex="1" parent="1">
          <mxGeometry x="163" y="470" width="146.88" height="145" as="geometry" />
        </mxCell>
        <mxCell id="qKtiOTFCfpdLwfOGQDM3-5" value="NAT Gateway" style="outlineConnect=0;fontColor=#232F3E;gradientColor=none;fillColor=#5A30B5;strokeColor=none;dashed=0;verticalLabelPosition=bottom;verticalAlign=top;align=center;html=1;fontSize=12;fontStyle=0;aspect=fixed;pointerEvents=1;shape=mxgraph.aws4.nat_gateway;" vertex="1" parent="1">
          <mxGeometry x="172" y="328" width="78" height="78" as="geometry" />
        </mxCell>
        <mxCell id="qKtiOTFCfpdLwfOGQDM3-14" style="edgeStyle=orthogonalEdgeStyle;rounded=0;orthogonalLoop=1;jettySize=auto;html=1;entryX=1;entryY=0.5;entryDx=0;entryDy=0;" edge="1" parent="1" source="qKtiOTFCfpdLwfOGQDM3-6" target="qKtiOTFCfpdLwfOGQDM3-13">
          <mxGeometry relative="1" as="geometry" />
        </mxCell>
        <mxCell id="qKtiOTFCfpdLwfOGQDM3-15" value="LB Listener" style="edgeLabel;html=1;align=center;verticalAlign=middle;resizable=0;points=[];" vertex="1" connectable="0" parent="qKtiOTFCfpdLwfOGQDM3-14">
          <mxGeometry x="-0.0265" y="-2" relative="1" as="geometry">
            <mxPoint as="offset" />
          </mxGeometry>
        </mxCell>
        <mxCell id="qKtiOTFCfpdLwfOGQDM3-6" value="Application Load Balancer :80" style="outlineConnect=0;fontColor=#232F3E;gradientColor=none;fillColor=#5A30B5;strokeColor=none;dashed=0;verticalLabelPosition=bottom;verticalAlign=top;align=center;html=1;fontSize=12;fontStyle=0;aspect=fixed;pointerEvents=1;shape=mxgraph.aws4.application_load_balancer;" vertex="1" parent="1">
          <mxGeometry x="560" y="290" width="78" height="78" as="geometry" />
        </mxCell>
        <mxCell id="qKtiOTFCfpdLwfOGQDM3-10" value="VPC Subnet" style="dashed=0;html=1;shape=mxgraph.aws3.permissions;fillColor=#D9A741;gradientColor=none;dashed=0;labelPosition=center;verticalLabelPosition=bottom;align=center;verticalAlign=top;" vertex="1" parent="1">
          <mxGeometry x="186.5" y="255" width="30" height="35" as="geometry" />
        </mxCell>
        <mxCell id="qKtiOTFCfpdLwfOGQDM3-29" style="edgeStyle=orthogonalEdgeStyle;rounded=0;orthogonalLoop=1;jettySize=auto;html=1;exitX=1;exitY=1;exitDx=0;exitDy=0;" edge="1" parent="1" source="qKtiOTFCfpdLwfOGQDM3-13" target="qKtiOTFCfpdLwfOGQDM3-1">
          <mxGeometry relative="1" as="geometry" />
        </mxCell>
        <mxCell id="qKtiOTFCfpdLwfOGQDM3-30" value="targets/monitors" style="edgeLabel;html=1;align=center;verticalAlign=middle;resizable=0;points=[];" vertex="1" connectable="0" parent="qKtiOTFCfpdLwfOGQDM3-29">
          <mxGeometry x="-0.3567" y="2" relative="1" as="geometry">
            <mxPoint as="offset" />
          </mxGeometry>
        </mxCell>
        <mxCell id="qKtiOTFCfpdLwfOGQDM3-13" value="target group :30000" style="ellipse;whiteSpace=wrap;html=1;align=center;labelPosition=center;verticalLabelPosition=bottom;verticalAlign=top;" vertex="1" parent="1">
          <mxGeometry x="338" y="510" width="120" height="80" as="geometry" />
        </mxCell>
        <mxCell id="qKtiOTFCfpdLwfOGQDM3-18" value="creates" style="edgeStyle=orthogonalEdgeStyle;rounded=0;orthogonalLoop=1;jettySize=auto;html=1;" edge="1" parent="1" source="qKtiOTFCfpdLwfOGQDM3-16" target="qKtiOTFCfpdLwfOGQDM3-1">
          <mxGeometry relative="1" as="geometry" />
        </mxCell>
        <mxCell id="qKtiOTFCfpdLwfOGQDM3-16" value="launch template" style="pointerEvents=1;shadow=0;dashed=0;html=1;strokeColor=none;fillColor=#434445;aspect=fixed;labelPosition=center;verticalLabelPosition=bottom;verticalAlign=top;align=center;outlineConnect=0;shape=mxgraph.vvd.template;" vertex="1" parent="1">
          <mxGeometry x="875" y="325" width="41" height="50" as="geometry" />
        </mxCell>
        <mxCell id="qKtiOTFCfpdLwfOGQDM3-17" value="" style="group" vertex="1" connectable="0" parent="1">
          <mxGeometry x="807" y="524" width="149.5" height="129" as="geometry" />
        </mxCell>
        <mxCell id="qKtiOTFCfpdLwfOGQDM3-12" value="security groups" style="rounded=1;arcSize=10;dashed=1;strokeColor=#ff0000;fillColor=none;gradientColor=none;dashPattern=8 4;strokeWidth=2;align=center;labelPosition=center;verticalLabelPosition=bottom;verticalAlign=top;" vertex="1" parent="qKtiOTFCfpdLwfOGQDM3-17">
          <mxGeometry width="149.5" height="129" as="geometry" />
        </mxCell>
        <mxCell id="qKtiOTFCfpdLwfOGQDM3-1" value="Foundry Application" style="outlineConnect=0;fontColor=#232F3E;gradientColor=none;fillColor=#D86613;strokeColor=none;dashed=0;verticalLabelPosition=bottom;verticalAlign=top;align=center;html=1;fontSize=12;fontStyle=0;aspect=fixed;pointerEvents=1;shape=mxgraph.aws4.t2_instance;" vertex="1" parent="qKtiOTFCfpdLwfOGQDM3-17">
          <mxGeometry x="39.5" y="18" width="48" height="48" as="geometry" />
        </mxCell>
        <mxCell id="qKtiOTFCfpdLwfOGQDM3-22" style="edgeStyle=orthogonalEdgeStyle;rounded=0;orthogonalLoop=1;jettySize=auto;html=1;" edge="1" parent="1" source="qKtiOTFCfpdLwfOGQDM3-19" target="qKtiOTFCfpdLwfOGQDM3-16">
          <mxGeometry relative="1" as="geometry">
            <Array as="points">
              <mxPoint x="737" y="399" />
              <mxPoint x="835" y="399" />
              <mxPoint x="835" y="350" />
            </Array>
          </mxGeometry>
        </mxCell>
        <mxCell id="qKtiOTFCfpdLwfOGQDM3-23" value="uses" style="edgeLabel;html=1;align=center;verticalAlign=middle;resizable=0;points=[];" vertex="1" connectable="0" parent="qKtiOTFCfpdLwfOGQDM3-22">
          <mxGeometry x="-0.0882" y="-2" relative="1" as="geometry">
            <mxPoint as="offset" />
          </mxGeometry>
        </mxCell>
        <mxCell id="qKtiOTFCfpdLwfOGQDM3-24" style="edgeStyle=orthogonalEdgeStyle;rounded=0;orthogonalLoop=1;jettySize=auto;html=1;" edge="1" parent="1" source="qKtiOTFCfpdLwfOGQDM3-19" target="qKtiOTFCfpdLwfOGQDM3-6">
          <mxGeometry relative="1" as="geometry" />
        </mxCell>
        <mxCell id="qKtiOTFCfpdLwfOGQDM3-25" value="autoscaling attachment" style="edgeLabel;html=1;align=center;verticalAlign=middle;resizable=0;points=[];" vertex="1" connectable="0" parent="qKtiOTFCfpdLwfOGQDM3-24">
          <mxGeometry x="-0.1505" relative="1" as="geometry">
            <mxPoint x="-5" as="offset" />
          </mxGeometry>
        </mxCell>
        <mxCell id="qKtiOTFCfpdLwfOGQDM3-19" value="autoscaling group" style="outlineConnect=0;fontColor=#232F3E;gradientColor=none;fillColor=#D05C17;strokeColor=none;dashed=0;verticalLabelPosition=bottom;verticalAlign=top;align=center;html=1;fontSize=12;fontStyle=0;aspect=fixed;pointerEvents=1;shape=mxgraph.aws4.auto_scaling2;" vertex="1" parent="1">
          <mxGeometry x="698" y="416" width="78" height="78" as="geometry" />
        </mxCell>
        <mxCell id="qKtiOTFCfpdLwfOGQDM3-32" style="edgeStyle=orthogonalEdgeStyle;rounded=0;orthogonalLoop=1;jettySize=auto;html=1;exitX=0.75;exitY=0;exitDx=0;exitDy=0;" edge="1" parent="1" source="qKtiOTFCfpdLwfOGQDM3-31" target="qKtiOTFCfpdLwfOGQDM3-6">
          <mxGeometry relative="1" as="geometry">
            <Array as="points">
              <mxPoint x="243" y="451" />
              <mxPoint x="456" y="451" />
              <mxPoint x="456" y="315" />
            </Array>
          </mxGeometry>
        </mxCell>
        <mxCell id="qKtiOTFCfpdLwfOGQDM3-33" value="alias points to" style="edgeLabel;html=1;align=center;verticalAlign=middle;resizable=0;points=[];" vertex="1" connectable="0" parent="qKtiOTFCfpdLwfOGQDM3-32">
          <mxGeometry x="-0.2037" y="1" relative="1" as="geometry">
            <mxPoint as="offset" />
          </mxGeometry>
        </mxCell>
        <mxCell id="qKtiOTFCfpdLwfOGQDM3-31" value="www.inharnsway.com" style="text;html=1;strokeColor=none;fillColor=none;align=center;verticalAlign=middle;whiteSpace=wrap;rounded=0;" vertex="1" parent="1">
          <mxGeometry x="213" y="533" width="40" height="20" as="geometry" />
        </mxCell>
      </root>
    </mxGraphModel>
  </diagram>
</mxfile>
